<svg width="61" height="26" viewBox="0 0 61 26" fill="none" xmlns="http://www.w3.org/2000/svg">
<g id="Group 396">
<rect id="Rectangle 183" opacity="0.08" width="61" height="26" rx="5" fill="#8B3DFF"/>
<g id="Group 384">
<g id="Vector">
<path d="M15.7556 7H14.0222C12.9389 7 12 7.93889 12 9.02222V10.6833C12 11.8389 12.9389 12.7778 14.0222 12.7778H15.6833C16.8389 12.7778 17.7778 11.8389 17.7778 10.7556V9.02222C17.7778 7.93889 16.8389 7 15.7556 7ZM16.3333 10.7556C16.3333 11.0444 16.0444 11.3333 15.7556 11.3333H14.0222C13.7333 11.3333 13.4444 11.0444 13.4444 10.7556V9.02222C13.4444 8.73333 13.7333 8.44444 14.0222 8.44444H15.6833C16.0444 8.44444 16.3333 8.73333 16.3333 9.02222V10.7556Z" fill="#9867EA"/>
<path d="M22.9778 7H21.3167C20.1611 7 19.2222 7.93889 19.2222 9.02222V10.6833C19.2222 11.8389 20.1611 12.7056 21.2444 12.7056H22.9056C24.0611 12.7056 24.9278 11.7667 24.9278 10.6833V9.02222C25 7.93889 24.0611 7 22.9778 7ZM23.5556 10.7556C23.5556 11.0444 23.2667 11.3333 22.9778 11.3333H21.3167C20.9556 11.3333 20.6667 11.0444 20.6667 10.7556V9.02222C20.6667 8.73333 20.9556 8.44444 21.2444 8.44444H22.9056C23.2667 8.44444 23.5556 8.73333 23.5556 9.02222V10.7556Z" fill="#9867EA"/>
<path d="M22.9778 14.2222H21.3167C20.1611 14.2222 19.2944 15.1611 19.2944 16.2444V17.9056C19.2944 19.0611 20.2333 19.9278 21.3167 19.9278H22.9778C24.1333 19.9278 25 18.9889 25 17.9056V16.2444C25 15.1611 24.0611 14.2222 22.9778 14.2222ZM23.5556 17.9778C23.5556 18.3389 23.2667 18.5556 22.9778 18.5556H21.3167C20.9556 18.5556 20.7389 18.2667 20.7389 17.9778V16.3167C20.7389 15.9556 21.0278 15.7389 21.3167 15.7389H22.9778C23.3389 15.7389 23.5556 16.0278 23.5556 16.3167V17.9778Z" fill="#9867EA"/>
<path d="M15.7556 14.2222H14.0222C12.9389 14.2222 12 15.1611 12 16.2444V17.9056C12 19.0611 12.9389 20 14.0222 20H15.6833C16.8389 20 17.7056 19.0611 17.7056 17.9778V16.3167C17.7778 15.1611 16.8389 14.2222 15.7556 14.2222ZM16.3333 17.9778C16.3333 18.2667 16.0444 18.5556 15.7556 18.5556H14.0222C13.7333 18.5556 13.4444 18.2667 13.4444 17.9778V16.3167C13.4444 15.9556 13.7333 15.6667 14.0222 15.6667H15.6833C16.0444 15.6667 16.3333 15.9556 16.3333 16.2444V17.9778Z" fill="#9867EA"/>
</g>
<g id="Group 378">
<path id="Vector_2" d="M45.4545 18.6358V17.454C45.4545 16.8271 45.2055 16.2259 44.7622 15.7826C44.319 15.3394 43.7178 15.0903 43.0909 15.0903H38.3636C37.7368 15.0903 37.1356 15.3394 36.6923 15.7826C36.249 16.2259 36 16.8271 36 17.454V18.6358" stroke="#9867EA" stroke-width="1.7" stroke-linecap="round" stroke-linejoin="round"/>
<path id="Vector_3" d="M40.7272 12.7273C42.0326 12.7273 43.0908 11.669 43.0908 10.3636C43.0908 9.05823 42.0326 8 40.7272 8C39.4218 8 38.3635 9.05823 38.3635 10.3636C38.3635 11.669 39.4218 12.7273 40.7272 12.7273Z" stroke="#9867EA" stroke-width="1.7" stroke-linecap="round" stroke-linejoin="round"/>
<path id="Vector_4" d="M49 18.6361V17.4542C48.9996 16.9305 48.8253 16.4218 48.5045 16.0079C48.1836 15.594 47.7344 15.2983 47.2273 15.1674" stroke="#9867EA" stroke-width="1.7" stroke-linecap="round" stroke-linejoin="round"/>
<path id="Vector_5" d="M44.8635 8.07707C45.372 8.20725 45.8226 8.50294 46.1444 8.91753C46.4662 9.33211 46.6409 9.84202 46.6409 10.3668C46.6409 10.8917 46.4662 11.4016 46.1444 11.8162C45.8226 12.2307 45.372 12.5264 44.8635 12.6566" stroke="#9867EA" stroke-width="1.7" stroke-linecap="round" stroke-linejoin="round"/>
</g>
</g>
</g>
</svg>
